<svg viewBox="0 0 273.994 270.148" xmlns="http://www.w3.org/2000/svg" xmlns:xlink="http://www.w3.org/1999/xlink" width="273.993988" height="270.148315" fill="none" customFrame="#000000">
	<defs>
		<linearGradient id="paint_linear_1" x1="135.504471" x2="249.004471" y1="3.59705353" y2="291.597046" gradientUnits="userSpaceOnUse">
			<stop stop-color="rgb(153,153,153)" offset="0" stop-opacity="0" />
			<stop stop-color="rgb(255,255,255)" offset="1" stop-opacity="1" />
		</linearGradient>
	</defs>
	<path id="Vector 7" d="M140.135 6.19403C139.797 6.37215 139.304 6.63808 138.656 6.99182C137.346 7.7068 135.926 8.49908 134.396 9.36868C129.485 12.1592 124.399 15.1962 119.137 18.4797C111.767 23.0787 104.576 27.84 97.5636 32.7638C88.8045 38.9141 80.5786 45.1421 72.8857 51.4478C63.811 58.8861 55.6219 66.3162 48.3185 73.7381C40.0037 82.1877 32.9225 90.5408 27.0747 98.7975C20.5879 107.956 15.6686 116.927 12.3168 125.711C8.67235 135.261 6.90149 144.543 7.00426 153.557C7.07637 159.882 8.07027 165.887 9.98596 171.571C11.8179 177.008 14.496 182.161 18.0203 187.031C24.6656 196.215 34.3015 204.384 46.9282 211.54C58.3847 218.033 72.2104 223.641 88.4053 228.363C102.656 232.518 118.606 235.949 136.253 238.655C151.218 240.95 167.203 242.694 184.205 243.887C197.819 244.843 211.77 245.426 226.059 245.635C236.265 245.785 246.127 245.741 255.646 245.502C258.617 245.428 261.373 245.339 263.916 245.235C265.18 245.183 266.146 245.139 266.813 245.102L267.196 252.092C266.497 252.13 265.499 252.176 264.202 252.229C261.622 252.334 258.829 252.425 255.821 252.5C246.21 252.741 236.255 252.786 225.957 252.634C211.538 252.423 197.457 251.835 183.715 250.87C166.521 249.663 150.347 247.898 135.192 245.574C117.241 242.821 100.992 239.324 86.4458 235.083C69.7291 230.209 55.4061 224.391 43.4768 217.63C29.9661 209.973 19.5903 201.141 12.3493 191.135C8.40966 185.69 5.41073 179.914 3.35249 173.807C1.20116 167.423 0.0852363 160.7 0.00471354 153.637C-0.108177 143.736 1.81586 133.595 5.77683 123.215C9.33911 113.88 14.5343 104.392 21.3623 94.7516C27.4278 86.1875 34.7501 77.5464 43.3291 68.8284C50.8076 61.2286 59.1806 53.6305 68.4482 46.0341C76.2755 39.6182 84.6398 33.2852 93.541 27.035C100.657 22.0385 107.954 17.2071 115.431 12.5411C120.775 9.20672 125.944 6.1206 130.938 3.28268C132.502 2.39352 133.957 1.58193 135.301 0.847906C135.98 0.477183 136.505 0.194566 136.874 5.74589e-05L140.135 6.19403ZM239.297 250.116L238.199 230.084L273.994 248.214L240.396 270.148L239.297 250.116L246.287 249.733L247.053 263.712L243.559 263.904L241.645 260.973L265.091 245.666L267.004 248.597L265.423 251.719L240.444 239.068L242.026 235.946L245.52 235.754L246.287 249.733L239.297 250.116ZM242.792 249.925L242.026 235.946L267.004 248.597L243.559 263.904L242.792 249.925Z" fill="url(#paint_linear_1)" fill-rule="nonzero" />
</svg>
