<svg viewBox="0 0 319.5 5" xmlns="http://www.w3.org/2000/svg" xmlns:xlink="http://www.w3.org/1999/xlink" width="319.500000" height="5.000000" fill="none" customFrame="#000000">
	<path id="Vector 13" d="M2.5 2L317 2L317 3L2.5 3L2.5 2ZM5 2.5C5 4.16667 4.16667 5 2.5 5C0.833333 5 0 4.16667 0 2.5C0 0.833333 0.833333 0 2.5 0C4.16667 0 5 0.833333 5 2.5ZM319.5 2.5C319.5 4.16667 318.667 5 317 5C315.333 5 314.5 4.16667 314.5 2.5C314.5 0.833333 315.333 0 317 0C318.667 0 319.5 0.833333 319.5 2.5Z" fill="rgb(0,0,0)" fill-rule="nonzero" />
</svg>
