<svg viewBox="0 0 2121 5" xmlns="http://www.w3.org/2000/svg" xmlns:xlink="http://www.w3.org/1999/xlink" width="2121.000000" height="5.000000" fill="none" customFrame="#000000">
	<path id="Vector 13" d="M2.5 2L2118.5 2L2118.5 3L2.5 3L2.5 2ZM5 2.5C5 4.16667 4.16667 5 2.5 5C0.833333 5 0 4.16667 0 2.5C0 0.833333 0.833333 0 2.5 0C4.16667 0 5 0.833333 5 2.5ZM2121 2.5C2121 4.16667 2120.17 5 2118.5 5C2116.83 5 2116 4.16667 2116 2.5C2116 0.833333 2116.83 0 2118.5 0C2120.17 0 2121 0.833333 2121 2.5Z" fill="rgb(255,255,255)" fill-rule="nonzero" />
</svg>
