<svg viewBox="0 0 911 5" xmlns="http://www.w3.org/2000/svg" xmlns:xlink="http://www.w3.org/1999/xlink" width="911.000000" height="5.000000" fill="none" customFrame="#000000">
	<path id="Vector 1" d="M2.5 2L908.5 2L908.5 3L2.5 3L2.5 2ZM5 2.5C5 4.16667 4.16667 5 2.5 5C0.833333 5 0 4.16667 0 2.5C0 0.833333 0.833333 0 2.5 0C4.16667 0 5 0.833333 5 2.5ZM911 2.5C911 4.16667 910.167 5 908.5 5C906.833 5 906 4.16667 906 2.5C906 0.833333 906.833 0 908.5 0C910.167 0 911 0.833333 911 2.5Z" fill="rgb(255,255,255)" fill-rule="nonzero" />
</svg>
