<svg viewBox="0 0 799.5 582.446" xmlns="http://www.w3.org/2000/svg" xmlns:xlink="http://www.w3.org/1999/xlink" width="799.500000" height="582.446350" fill="none" customFrame="#000000">
	<defs>
		<linearGradient id="paint_linear_0" x1="46.6142273" x2="728.916992" y1="64.3300781" y2="424.772461" gradientUnits="userSpaceOnUse">
			<stop stop-color="rgb(255,180,247)" offset="0" stop-opacity="1" />
			<stop stop-color="rgb(255,208,222.5)" offset="0.131285921" stop-opacity="1" />
			<stop stop-color="rgb(255,236,198)" offset="0.235042199" stop-opacity="1" />
			<stop stop-color="rgb(255,149,236)" offset="0.37706399" stop-opacity="1" />
			<stop stop-color="rgb(233,140.5,245.5)" offset="0.512469232" stop-opacity="1" />
			<stop stop-color="rgb(142,173,255)" offset="0.671716452" stop-opacity="1" />
			<stop stop-color="rgb(207.25,156.875,252.625)" offset="0.844650447" stop-opacity="1" />
			<stop stop-color="rgb(255,126,246)" offset="0.931053519" stop-opacity="1" />
		</linearGradient>
	</defs>
	<g style="mix-blend-mode:hard-light">
		<path id="Vector 17" d="M17 115L286.5 0C286.5 0 147.059 269.418 257 247C300.569 238.116 327 220 327 220C327 220 392.538 272.264 461.5 274.5C566.159 277.893 391.759 90.5129 357.627 54.8274C385.453 83.1674 508.395 202.66 543 138.5C557.822 111.019 551.5 59 551.5 59L799.5 59L704.5 253.5C704.5 253.5 711.308 165.736 672 151.5C624.74 134.384 593.5 253.5 593.5 253.5C593.5 253.5 556.321 208.139 550 227C537.772 263.487 562.514 316.506 587.903 370.912C626.88 454.435 667.383 541.229 578 576.5C505.348 605.169 479.715 525.01 454.631 446.572C429.659 368.483 405.232 292.098 335.5 326.5C284.361 351.729 283.781 409.703 283.243 463.501C282.675 520.372 282.153 572.577 222 576.5C128.78 582.58 136.805 495.461 145.914 396.572C152.537 324.67 159.733 246.545 129 193.5C102.628 147.981 0 206 0 206L17 115ZM357.627 54.8274C354.038 51.0753 352 49 352 49C352 49 354.01 51.1436 357.627 54.8274Z" fill="url(#paint_linear_0)" fill-rule="evenodd" />
	</g>
</svg>
