<svg viewBox="0 0 2718.5 1190.93" xmlns="http://www.w3.org/2000/svg" xmlns:xlink="http://www.w3.org/1999/xlink" width="2718.500000" height="1190.933594" fill="none" customFrame="#000000">
	<g style="mix-blend-mode:hard-light">
		<path id="Vector 5" d="M757.5 77.5364C619.504 -114.688 152.5 111.036 152.5 111.036L0 270.536C0 270.536 463.704 75.6046 518.5 270.536C552.28 390.706 383.983 446.578 405.5 569.536C447.102 807.268 1023.5 569.536 1023.5 569.536C1023.5 569.536 897.009 1101.16 1123.5 1161.04C1302.57 1208.38 1529 915.036 1529 915.036C1529 915.036 1845.2 1298.94 2000.5 1161.04C2124.75 1050.7 2000.5 735.536 2000.5 735.536C2000.5 735.536 2084.24 569.397 2173.5 496.536C2341.13 359.701 2718.5 396.536 2718.5 396.536L2718.5 77.5364C2718.5 77.5364 2410.17 238.676 2207 330.036C2053.01 399.281 1808 496.536 1808 496.536C1808 496.536 1877.47 988.159 1728 915.036C1617.46 860.956 1628.5 616.036 1628.5 616.036C1628.5 616.036 1311.88 854.32 1170 735.536C1065.7 648.216 1090 396.536 1090 396.536C1090 396.536 875.576 563.2 757.5 496.536C615.011 416.09 852.925 210.46 757.5 77.5364Z" fill="rgb(0,0,0)" fill-opacity="0.5" fill-rule="evenodd" />
	</g>
</svg>
