<svg viewBox="0 0 73 73" xmlns="http://www.w3.org/2000/svg" xmlns:xlink="http://www.w3.org/1999/xlink" width="73.000000" height="73.000000" fill="none">
	<rect id="ic:baseline-telegram" width="73.000000" height="73.000000" x="0.000000" y="0.000000" fill="rgb(255,255,255)" fill-opacity="0" />
	<path id="Vector" d="M36.5 6.08301C19.71 6.08301 6.08337 19.7097 6.08337 36.4997C6.08337 53.2897 19.71 66.9163 36.5 66.9163C53.29 66.9163 66.9167 53.2897 66.9167 36.4997C66.9167 19.7097 53.29 6.08301 36.5 6.08301ZM50.6134 26.7663C50.1571 31.5722 48.18 43.2522 47.1763 48.6359C46.7505 50.9172 45.8988 51.6776 45.108 51.7688C43.3438 51.9209 42.0055 50.613 40.3021 49.4876C37.6255 47.7234 36.1046 46.6284 33.5192 44.9251C30.508 42.948 32.4546 41.853 34.1884 40.0888C34.6446 39.6326 42.4313 32.5455 42.5834 31.9068C42.6045 31.81 42.6017 31.7096 42.5752 31.6142C42.5487 31.5187 42.4993 31.4312 42.4313 31.3593C42.2488 31.2072 42.0055 31.268 41.7925 31.2984C41.5188 31.3593 37.2605 34.188 28.9567 39.7847C27.74 40.6059 26.645 41.0318 25.6717 41.0013C24.5767 40.9709 22.5084 40.393 20.9571 39.8759C19.0409 39.2676 17.5505 38.933 17.6721 37.8684C17.733 37.3209 18.4934 36.7734 19.923 36.1955C28.8046 32.3326 34.7055 29.7776 37.6559 28.5609C46.1117 25.0326 47.8455 24.4243 49.0013 24.4243C49.2446 24.4243 49.8225 24.4851 50.1875 24.7893C50.4917 25.0326 50.583 25.3672 50.6134 25.6105C50.583 25.793 50.6438 26.3405 50.6134 26.7663Z" fill="rgb(255,255,255)" fill-rule="nonzero" />
</svg>
